<?xml version="1.0" encoding="UTF-8" standalone="no"?>
<!DOCTYPE svg PUBLIC "-//W3C//DTD SVG 1.1//EN"
 "http://www.w3.org/Graphics/SVG/1.1/DTD/svg11.dtd">
<!-- Generated by graphviz version 2.44.0 (0)
 -->
<!-- Title: G Pages: 1 -->
<svg width="357pt" height="285pt"
 viewBox="0.00 0.00 357.22 284.70" xmlns="http://www.w3.org/2000/svg" xmlns:xlink="http://www.w3.org/1999/xlink">
<g id="graph0" class="graph" transform="scale(1 1) rotate(0) translate(4 280.7)">
<title>G</title>
<polygon fill="white" stroke="transparent" points="-4,4 -4,-280.7 353.22,-280.7 353.22,4 -4,4"/>
<!-- board.cache_hierarchy.ruby_system.network.routers0 -->
<g id="node1" class="node">
<title>board.cache_hierarchy.ruby_system.network.routers0</title>
<path fill="#cce6fc" stroke="#000000" d="M202.83,-116.22C202.83,-116.22 232.83,-116.22 232.83,-116.22 238.83,-116.22 244.83,-122.22 244.83,-128.22 244.83,-128.22 244.83,-140.22 244.83,-140.22 244.83,-146.22 238.83,-152.22 232.83,-152.22 232.83,-152.22 202.83,-152.22 202.83,-152.22 196.83,-152.22 190.83,-146.22 190.83,-140.22 190.83,-140.22 190.83,-128.22 190.83,-128.22 190.83,-122.22 196.83,-116.22 202.83,-116.22"/>
<text text-anchor="middle" x="217.83" y="-130.52" font-family="Arial" font-size="14.00" fill="#000000">R 0</text>
</g>
<!-- board.cache_hierarchy.ruby_system.network.routers1 -->
<g id="node2" class="node">
<title>board.cache_hierarchy.ruby_system.network.routers1</title>
<path fill="#cce6fc" stroke="#000000" d="M115.63,-105.47C115.63,-105.47 145.63,-105.47 145.63,-105.47 151.63,-105.47 157.63,-111.47 157.63,-117.47 157.63,-117.47 157.63,-129.47 157.63,-129.47 157.63,-135.47 151.63,-141.47 145.63,-141.47 145.63,-141.47 115.63,-141.47 115.63,-141.47 109.63,-141.47 103.63,-135.47 103.63,-129.47 103.63,-129.47 103.63,-117.47 103.63,-117.47 103.63,-111.47 109.63,-105.47 115.63,-105.47"/>
<text text-anchor="middle" x="130.63" y="-119.77" font-family="Arial" font-size="14.00" fill="#000000">R 1</text>
</g>
<!-- board.cache_hierarchy.ruby_system.network.routers0&#45;&#45;board.cache_hierarchy.ruby_system.network.routers1 -->
<g id="edge1" class="edge">
<title>board.cache_hierarchy.ruby_system.network.routers0&#45;&#45;board.cache_hierarchy.ruby_system.network.routers1</title>
<path fill="none" stroke="#042d50" d="M190.72,-130.88C183.42,-129.98 175.39,-128.99 167.65,-128.03"/>
<polygon fill="#042d50" stroke="#042d50" points="168.08,-124.56 157.73,-126.81 167.22,-131.51 168.08,-124.56"/>
</g>
<!-- board.cache_hierarchy.ruby_system.network.routers2 -->
<g id="node3" class="node">
<title>board.cache_hierarchy.ruby_system.network.routers2</title>
<path fill="#cce6fc" stroke="#000000" d="M182.37,-83.22C182.37,-83.22 212.37,-83.22 212.37,-83.22 218.37,-83.22 224.37,-89.22 224.37,-95.22 224.37,-95.22 224.37,-107.22 224.37,-107.22 224.37,-113.22 218.37,-119.22 212.37,-119.22 212.37,-119.22 182.37,-119.22 182.37,-119.22 176.37,-119.22 170.37,-113.22 170.37,-107.22 170.37,-107.22 170.37,-95.22 170.37,-95.22 170.37,-89.22 176.37,-83.22 182.37,-83.22"/>
<text text-anchor="middle" x="197.37" y="-97.52" font-family="Arial" font-size="14.00" fill="#000000">R 2</text>
</g>
<!-- board.cache_hierarchy.ruby_system.network.routers0&#45;&#45;board.cache_hierarchy.ruby_system.network.routers2 -->
<g id="edge2" class="edge">
<title>board.cache_hierarchy.ruby_system.network.routers0&#45;&#45;board.cache_hierarchy.ruby_system.network.routers2</title>
<path fill="none" stroke="#042d50" d="M214.5,-116.11C214.46,-116.04 214.42,-115.97 214.38,-115.9"/>
<polygon fill="#042d50" stroke="#042d50" points="222.29,-122.59 214.25,-115.69 216.23,-126.1 222.29,-122.59"/>
</g>
<!-- board.cache_hierarchy.ruby_system.network.routers3 -->
<g id="node4" class="node">
<title>board.cache_hierarchy.ruby_system.network.routers3</title>
<path fill="#cce6fc" stroke="#000000" d="M143.71,-78.31C143.71,-78.31 173.71,-78.31 173.71,-78.31 179.71,-78.31 185.71,-84.31 185.71,-90.31 185.71,-90.31 185.71,-102.31 185.71,-102.31 185.71,-108.31 179.71,-114.31 173.71,-114.31 173.71,-114.31 143.71,-114.31 143.71,-114.31 137.71,-114.31 131.71,-108.31 131.71,-102.31 131.71,-102.31 131.71,-90.31 131.71,-90.31 131.71,-84.31 137.71,-78.31 143.71,-78.31"/>
<text text-anchor="middle" x="158.71" y="-92.61" font-family="Arial" font-size="14.00" fill="#000000">R 3</text>
</g>
<!-- board.cache_hierarchy.ruby_system.network.routers0&#45;&#45;board.cache_hierarchy.ruby_system.network.routers3 -->
<g id="edge3" class="edge">
<title>board.cache_hierarchy.ruby_system.network.routers0&#45;&#45;board.cache_hierarchy.ruby_system.network.routers3</title>
<path fill="none" stroke="#042d50" d="M201.6,-116.21C199.3,-114.52 196.87,-112.84 194.38,-111.19"/>
<polygon fill="#042d50" stroke="#042d50" points="196.12,-108.15 185.78,-105.8 192.4,-114.08 196.12,-108.15"/>
</g>
<!-- board.cache_hierarchy.ruby_system.network.routers4 -->
<g id="node5" class="node">
<title>board.cache_hierarchy.ruby_system.network.routers4</title>
<path fill="#cce6fc" stroke="#000000" d="M148.69,-158.01C148.69,-158.01 178.69,-158.01 178.69,-158.01 184.69,-158.01 190.69,-164.01 190.69,-170.01 190.69,-170.01 190.69,-182.01 190.69,-182.01 190.69,-188.01 184.69,-194.01 178.69,-194.01 178.69,-194.01 148.69,-194.01 148.69,-194.01 142.69,-194.01 136.69,-188.01 136.69,-182.01 136.69,-182.01 136.69,-170.01 136.69,-170.01 136.69,-164.01 142.69,-158.01 148.69,-158.01"/>
<text text-anchor="middle" x="163.69" y="-172.31" font-family="Arial" font-size="14.00" fill="#000000">R 4</text>
</g>
<!-- board.cache_hierarchy.ruby_system.network.routers0&#45;&#45;board.cache_hierarchy.ruby_system.network.routers4 -->
<g id="edge4" class="edge">
<title>board.cache_hierarchy.ruby_system.network.routers0&#45;&#45;board.cache_hierarchy.ruby_system.network.routers4</title>
<path fill="none" stroke="#042d50" d="M190.79,-146.65C188.83,-148.08 186.87,-149.57 184.95,-151.09"/>
<polygon fill="#042d50" stroke="#042d50" points="182.33,-148.72 176.91,-157.82 186.82,-154.08 182.33,-148.72"/>
</g>
<!-- board.cache_hierarchy.ruby_system.network.routers5 -->
<g id="node6" class="node">
<title>board.cache_hierarchy.ruby_system.network.routers5</title>
<path fill="#cce6fc" stroke="#000000" d="M190.66,-154.1C190.66,-154.1 220.66,-154.1 220.66,-154.1 226.66,-154.1 232.66,-160.1 232.66,-166.1 232.66,-166.1 232.66,-178.1 232.66,-178.1 232.66,-184.1 226.66,-190.1 220.66,-190.1 220.66,-190.1 190.66,-190.1 190.66,-190.1 184.66,-190.1 178.66,-184.1 178.66,-178.1 178.66,-178.1 178.66,-166.1 178.66,-166.1 178.66,-160.1 184.66,-154.1 190.66,-154.1"/>
<text text-anchor="middle" x="205.66" y="-168.4" font-family="Arial" font-size="14.00" fill="#000000">R 5</text>
</g>
<!-- board.cache_hierarchy.ruby_system.network.routers0&#45;&#45;board.cache_hierarchy.ruby_system.network.routers5 -->
<g id="edge5" class="edge">
<title>board.cache_hierarchy.ruby_system.network.routers0&#45;&#45;board.cache_hierarchy.ruby_system.network.routers5</title>
<path fill="none" stroke="#042d50" d="M204.9,-152.43C204.87,-152.54 204.84,-152.64 204.81,-152.75"/>
<polygon fill="#042d50" stroke="#042d50" points="203.9,-143.13 204.54,-153.71 210.64,-145.04 203.9,-143.13"/>
</g>
<!-- board.cache_hierarchy.ruby_system.network.routers6 -->
<g id="node7" class="node">
<title>board.cache_hierarchy.ruby_system.network.routers6</title>
<path fill="#cce6fc" stroke="#000000" d="M126.13,-148.27C126.13,-148.27 156.13,-148.27 156.13,-148.27 162.13,-148.27 168.13,-154.27 168.13,-160.27 168.13,-160.27 168.13,-172.27 168.13,-172.27 168.13,-178.27 162.13,-184.27 156.13,-184.27 156.13,-184.27 126.13,-184.27 126.13,-184.27 120.13,-184.27 114.13,-178.27 114.13,-172.27 114.13,-172.27 114.13,-160.27 114.13,-160.27 114.13,-154.27 120.13,-148.27 126.13,-148.27"/>
<text text-anchor="middle" x="141.13" y="-162.57" font-family="Arial" font-size="14.00" fill="#000000">R 6</text>
</g>
<!-- board.cache_hierarchy.ruby_system.network.routers0&#45;&#45;board.cache_hierarchy.ruby_system.network.routers6 -->
<g id="edge6" class="edge">
<title>board.cache_hierarchy.ruby_system.network.routers0&#45;&#45;board.cache_hierarchy.ruby_system.network.routers6</title>
<path fill="none" stroke="#042d50" d="M190.69,-138.67C186.17,-140.27 181.42,-142.11 176.72,-144.08"/>
<polygon fill="#042d50" stroke="#042d50" points="175,-141.02 167.26,-148.25 177.82,-147.42 175,-141.02"/>
</g>
<!-- board.cache_hierarchy.ruby_system.network.routers1&#45;&#45;board.cache_hierarchy.ruby_system.network.routers2 -->
<g id="edge7" class="edge">
<title>board.cache_hierarchy.ruby_system.network.routers1&#45;&#45;board.cache_hierarchy.ruby_system.network.routers2</title>
<path fill="none" stroke="#042d50" d="M157.78,-114.42C158.66,-114.12 159.55,-113.83 160.44,-113.53"/>
<polygon fill="#042d50" stroke="#042d50" points="161.65,-116.81 170.03,-110.33 159.44,-110.17 161.65,-116.81"/>
</g>
<!-- board.cache_hierarchy.ruby_system.network.routers1&#45;&#45;board.cache_hierarchy.ruby_system.network.routers3 -->
<g id="edge8" class="edge">
<title>board.cache_hierarchy.ruby_system.network.routers1&#45;&#45;board.cache_hierarchy.ruby_system.network.routers3</title>
<path fill="none" stroke="#042d50" d="M157.29,-105.15C157.33,-105.09 157.36,-105.03 157.4,-104.97"/>
<polygon fill="#042d50" stroke="#042d50" points="155.41,-115.19 157.5,-104.8 149.39,-111.62 155.41,-115.19"/>
</g>
<!-- board.cache_hierarchy.ruby_system.network.routers1&#45;&#45;board.cache_hierarchy.ruby_system.network.routers4 -->
<g id="edge9" class="edge">
<title>board.cache_hierarchy.ruby_system.network.routers1&#45;&#45;board.cache_hierarchy.ruby_system.network.routers4</title>
<path fill="none" stroke="#042d50" d="M134.81,-141.66C136.06,-144.13 137.47,-146.71 138.99,-149.28"/>
<polygon fill="#042d50" stroke="#042d50" points="136.15,-151.35 144.46,-157.93 142.07,-147.61 136.15,-151.35"/>
</g>
<!-- board.cache_hierarchy.ruby_system.network.routers1&#45;&#45;board.cache_hierarchy.ruby_system.network.routers5 -->
<g id="edge10" class="edge">
<title>board.cache_hierarchy.ruby_system.network.routers1&#45;&#45;board.cache_hierarchy.ruby_system.network.routers5</title>
<path fill="none" stroke="#042d50" d="M147.44,-141.58C154.12,-146.62 162.04,-152.01 169.87,-156.87"/>
<polygon fill="#042d50" stroke="#042d50" points="168.22,-159.96 178.59,-162.09 171.81,-153.96 168.22,-159.96"/>
</g>
<!-- board.cache_hierarchy.ruby_system.network.routers1&#45;&#45;board.cache_hierarchy.ruby_system.network.routers6 -->
<g id="edge11" class="edge">
<title>board.cache_hierarchy.ruby_system.network.routers1&#45;&#45;board.cache_hierarchy.ruby_system.network.routers6</title>
<path fill="none" stroke="#042d50" d="M128.36,-141.96C128.38,-142.09 128.4,-142.22 128.43,-142.35"/>
<polygon fill="#042d50" stroke="#042d50" points="124.13,-139.28 129.78,-148.25 130.96,-137.72 124.13,-139.28"/>
</g>
<!-- board.cache_hierarchy.ruby_system.network.routers2&#45;&#45;board.cache_hierarchy.ruby_system.network.routers0 -->
<g id="edge12" class="edge">
<title>board.cache_hierarchy.ruby_system.network.routers2&#45;&#45;board.cache_hierarchy.ruby_system.network.routers0</title>
<path fill="none" stroke="#042d50" d="M200.7,-119.32C200.74,-119.39 200.78,-119.46 200.82,-119.53"/>
<polygon fill="#042d50" stroke="#042d50" points="192.91,-112.84 200.94,-119.75 198.96,-109.34 192.91,-112.84"/>
</g>
<!-- board.cache_hierarchy.ruby_system.network.routers2&#45;&#45;board.cache_hierarchy.ruby_system.network.routers3 -->
<g id="edge13" class="edge">
<title>board.cache_hierarchy.ruby_system.network.routers2&#45;&#45;board.cache_hierarchy.ruby_system.network.routers3</title>
<path fill="none" stroke="#042d50" d="M170.1,-97.76C170.05,-97.75 170,-97.74 169.95,-97.74"/>
<polygon fill="#042d50" stroke="#042d50" points="180.17,-95.51 169.8,-97.72 179.28,-102.46 180.17,-95.51"/>
</g>
<!-- board.cache_hierarchy.ruby_system.network.routers2&#45;&#45;board.cache_hierarchy.ruby_system.network.routers4 -->
<g id="edge14" class="edge">
<title>board.cache_hierarchy.ruby_system.network.routers2&#45;&#45;board.cache_hierarchy.ruby_system.network.routers4</title>
<path fill="none" stroke="#042d50" d="M182.41,-119.54C177.7,-128.22 172.85,-138.76 169.11,-148.38"/>
<polygon fill="#042d50" stroke="#042d50" points="165.75,-147.37 165.66,-157.96 172.34,-149.74 165.75,-147.37"/>
</g>
<!-- board.cache_hierarchy.ruby_system.network.routers2&#45;&#45;board.cache_hierarchy.ruby_system.network.routers5 -->
<g id="edge15" class="edge">
<title>board.cache_hierarchy.ruby_system.network.routers2&#45;&#45;board.cache_hierarchy.ruby_system.network.routers5</title>
<path fill="none" stroke="#042d50" d="M193.54,-119.43C193.66,-126.89 194.44,-135.71 195.68,-143.97"/>
<polygon fill="#042d50" stroke="#042d50" points="192.26,-144.76 197.46,-153.99 199.15,-143.54 192.26,-144.76"/>
</g>
<!-- board.cache_hierarchy.ruby_system.network.routers2&#45;&#45;board.cache_hierarchy.ruby_system.network.routers6 -->
<g id="edge16" class="edge">
<title>board.cache_hierarchy.ruby_system.network.routers2&#45;&#45;board.cache_hierarchy.ruby_system.network.routers6</title>
<path fill="none" stroke="#042d50" d="M173.14,-119.39C167.11,-125.74 160.86,-132.98 155.46,-139.85"/>
<polygon fill="#042d50" stroke="#042d50" points="152.35,-138.16 149.16,-148.26 157.96,-142.35 152.35,-138.16"/>
</g>
<!-- board.cache_hierarchy.ruby_system.network.routers3&#45;&#45;board.cache_hierarchy.ruby_system.network.routers0 -->
<g id="edge17" class="edge">
<title>board.cache_hierarchy.ruby_system.network.routers3&#45;&#45;board.cache_hierarchy.ruby_system.network.routers0</title>
<path fill="none" stroke="#042d50" d="M174.94,-114.33C177.24,-116.01 179.67,-117.69 182.16,-119.34"/>
<polygon fill="#042d50" stroke="#042d50" points="180.42,-122.38 190.76,-124.73 184.14,-116.45 180.42,-122.38"/>
</g>
<!-- board.cache_hierarchy.ruby_system.network.routers3&#45;&#45;board.cache_hierarchy.ruby_system.network.routers1 -->
<g id="edge18" class="edge">
<title>board.cache_hierarchy.ruby_system.network.routers3&#45;&#45;board.cache_hierarchy.ruby_system.network.routers1</title>
<path fill="none" stroke="#042d50" d="M132.05,-114.63C132.02,-114.69 131.98,-114.75 131.95,-114.81"/>
<polygon fill="#042d50" stroke="#042d50" points="133.93,-104.59 131.84,-114.98 139.95,-108.16 133.93,-104.59"/>
</g>
<!-- board.cache_hierarchy.ruby_system.network.routers3&#45;&#45;board.cache_hierarchy.ruby_system.network.routers4 -->
<g id="edge19" class="edge">
<title>board.cache_hierarchy.ruby_system.network.routers3&#45;&#45;board.cache_hierarchy.ruby_system.network.routers4</title>
<path fill="none" stroke="#042d50" d="M159.84,-114.4C160.46,-124.28 161.24,-136.74 161.93,-147.87"/>
<polygon fill="#042d50" stroke="#042d50" points="158.45,-148.23 162.57,-158 165.44,-147.8 158.45,-148.23"/>
</g>
<!-- board.cache_hierarchy.ruby_system.network.routers3&#45;&#45;board.cache_hierarchy.ruby_system.network.routers5 -->
<g id="edge20" class="edge">
<title>board.cache_hierarchy.ruby_system.network.routers3&#45;&#45;board.cache_hierarchy.ruby_system.network.routers5</title>
<path fill="none" stroke="#042d50" d="M163.49,-114.57C168.03,-123.92 174.74,-135.44 181.54,-145.72"/>
<polygon fill="#042d50" stroke="#042d50" points="178.67,-147.73 187.21,-153.99 184.44,-143.77 178.67,-147.73"/>
</g>
<!-- board.cache_hierarchy.ruby_system.network.routers3&#45;&#45;board.cache_hierarchy.ruby_system.network.routers6 -->
<g id="edge21" class="edge">
<title>board.cache_hierarchy.ruby_system.network.routers3&#45;&#45;board.cache_hierarchy.ruby_system.network.routers6</title>
<path fill="none" stroke="#042d50" d="M147.75,-114.67C145.32,-121.82 143.08,-130.18 141.44,-138.06"/>
<polygon fill="#042d50" stroke="#042d50" points="137.98,-137.55 139.67,-148.01 144.87,-138.78 137.98,-137.55"/>
</g>
<!-- board.cache_hierarchy.ruby_system.network.routers4&#45;&#45;board.cache_hierarchy.ruby_system.network.routers0 -->
<g id="edge22" class="edge">
<title>board.cache_hierarchy.ruby_system.network.routers4&#45;&#45;board.cache_hierarchy.ruby_system.network.routers0</title>
<path fill="none" stroke="#042d50" d="M190.73,-163.57C192.69,-162.14 194.65,-160.66 196.57,-159.14"/>
<polygon fill="#042d50" stroke="#042d50" points="199.19,-161.51 204.61,-152.41 194.7,-156.14 199.19,-161.51"/>
</g>
<!-- board.cache_hierarchy.ruby_system.network.routers4&#45;&#45;board.cache_hierarchy.ruby_system.network.routers1 -->
<g id="edge23" class="edge">
<title>board.cache_hierarchy.ruby_system.network.routers4&#45;&#45;board.cache_hierarchy.ruby_system.network.routers1</title>
<path fill="none" stroke="#042d50" d="M159.52,-157.82C158.27,-155.34 156.86,-152.77 155.34,-150.19"/>
<polygon fill="#042d50" stroke="#042d50" points="158.17,-148.12 149.87,-141.54 152.26,-151.87 158.17,-148.12"/>
</g>
<!-- board.cache_hierarchy.ruby_system.network.routers4&#45;&#45;board.cache_hierarchy.ruby_system.network.routers2 -->
<g id="edge24" class="edge">
<title>board.cache_hierarchy.ruby_system.network.routers4&#45;&#45;board.cache_hierarchy.ruby_system.network.routers2</title>
<path fill="none" stroke="#042d50" d="M178.66,-157.69C183.36,-149.01 188.22,-138.46 191.96,-128.84"/>
<polygon fill="#042d50" stroke="#042d50" points="195.31,-129.86 195.41,-119.27 188.73,-127.49 195.31,-129.86"/>
</g>
<!-- board.cache_hierarchy.ruby_system.network.routers4&#45;&#45;board.cache_hierarchy.ruby_system.network.routers5 -->
<g id="edge25" class="edge">
<title>board.cache_hierarchy.ruby_system.network.routers4&#45;&#45;board.cache_hierarchy.ruby_system.network.routers5</title>
<path fill="none" stroke="#042d50" d="M190.98,-173.47C191.04,-173.46 191.11,-173.46 191.17,-173.45"/>
<polygon fill="#042d50" stroke="#042d50" points="181.72,-177.85 191.36,-173.43 181.07,-170.88 181.72,-177.85"/>
</g>
<!-- board.cache_hierarchy.ruby_system.network.routers4&#45;&#45;board.cache_hierarchy.ruby_system.network.routers6 -->
<g id="edge26" class="edge">
<title>board.cache_hierarchy.ruby_system.network.routers4&#45;&#45;board.cache_hierarchy.ruby_system.network.routers6</title>
<path fill="none" stroke="#042d50" d="M141.32,-165.89C141.3,-165.92 141.28,-165.95 141.27,-165.98"/>
<polygon fill="#042d50" stroke="#042d50" points="142.55,-155.56 141.22,-166.08 148.81,-158.68 142.55,-155.56"/>
</g>
<!-- board.cache_hierarchy.ruby_system.network.routers5&#45;&#45;board.cache_hierarchy.ruby_system.network.routers0 -->
<g id="edge27" class="edge">
<title>board.cache_hierarchy.ruby_system.network.routers5&#45;&#45;board.cache_hierarchy.ruby_system.network.routers0</title>
<path fill="none" stroke="#042d50" d="M218.58,-153.89C218.61,-153.78 218.65,-153.68 218.68,-153.57"/>
<polygon fill="#042d50" stroke="#042d50" points="219.58,-163.19 218.95,-152.61 212.85,-161.28 219.58,-163.19"/>
</g>
<!-- board.cache_hierarchy.ruby_system.network.routers5&#45;&#45;board.cache_hierarchy.ruby_system.network.routers1 -->
<g id="edge28" class="edge">
<title>board.cache_hierarchy.ruby_system.network.routers5&#45;&#45;board.cache_hierarchy.ruby_system.network.routers1</title>
<path fill="none" stroke="#042d50" d="M188.85,-153.99C182.17,-148.94 174.25,-143.56 166.42,-138.69"/>
<polygon fill="#042d50" stroke="#042d50" points="168.07,-135.61 157.69,-133.48 164.48,-141.61 168.07,-135.61"/>
</g>
<!-- board.cache_hierarchy.ruby_system.network.routers5&#45;&#45;board.cache_hierarchy.ruby_system.network.routers2 -->
<g id="edge29" class="edge">
<title>board.cache_hierarchy.ruby_system.network.routers5&#45;&#45;board.cache_hierarchy.ruby_system.network.routers2</title>
<path fill="none" stroke="#042d50" d="M209.48,-153.89C209.37,-146.43 208.58,-137.61 207.35,-129.35"/>
<polygon fill="#042d50" stroke="#042d50" points="210.77,-128.56 205.57,-119.33 203.87,-129.78 210.77,-128.56"/>
</g>
<!-- board.cache_hierarchy.ruby_system.network.routers5&#45;&#45;board.cache_hierarchy.ruby_system.network.routers3 -->
<g id="edge30" class="edge">
<title>board.cache_hierarchy.ruby_system.network.routers5&#45;&#45;board.cache_hierarchy.ruby_system.network.routers3</title>
<path fill="none" stroke="#042d50" d="M200.87,-153.84C196.34,-144.49 189.63,-132.98 182.83,-122.7"/>
<polygon fill="#042d50" stroke="#042d50" points="185.7,-120.69 177.15,-114.42 179.93,-124.65 185.7,-120.69"/>
</g>
<!-- board.cache_hierarchy.ruby_system.network.routers5&#45;&#45;board.cache_hierarchy.ruby_system.network.routers6 -->
<g id="edge31" class="edge">
<title>board.cache_hierarchy.ruby_system.network.routers5&#45;&#45;board.cache_hierarchy.ruby_system.network.routers6</title>
<path fill="none" stroke="#042d50" d="M178.29,-169.63C178.19,-169.62 178.09,-169.61 177.98,-169.6"/>
<polygon fill="#042d50" stroke="#042d50" points="178.61,-166.14 168.33,-168.73 177.98,-173.11 178.61,-166.14"/>
</g>
<!-- board.cache_hierarchy.ruby_system.network.routers6&#45;&#45;board.cache_hierarchy.ruby_system.network.routers0 -->
<g id="edge32" class="edge">
<title>board.cache_hierarchy.ruby_system.network.routers6&#45;&#45;board.cache_hierarchy.ruby_system.network.routers0</title>
<path fill="none" stroke="#042d50" d="M168.27,-161.81C172.8,-160.21 177.55,-158.37 182.24,-156.41"/>
<polygon fill="#042d50" stroke="#042d50" points="183.97,-159.47 191.71,-152.24 181.14,-153.06 183.97,-159.47"/>
</g>
<!-- board.cache_hierarchy.ruby_system.network.routers6&#45;&#45;board.cache_hierarchy.ruby_system.network.routers1 -->
<g id="edge33" class="edge">
<title>board.cache_hierarchy.ruby_system.network.routers6&#45;&#45;board.cache_hierarchy.ruby_system.network.routers1</title>
<path fill="none" stroke="#042d50" d="M143.41,-147.77C143.39,-147.64 143.36,-147.51 143.34,-147.38"/>
<polygon fill="#042d50" stroke="#042d50" points="147.63,-150.45 141.98,-141.49 140.81,-152.02 147.63,-150.45"/>
</g>
<!-- board.cache_hierarchy.ruby_system.network.routers6&#45;&#45;board.cache_hierarchy.ruby_system.network.routers2 -->
<g id="edge34" class="edge">
<title>board.cache_hierarchy.ruby_system.network.routers6&#45;&#45;board.cache_hierarchy.ruby_system.network.routers2</title>
<path fill="none" stroke="#042d50" d="M165.37,-148.1C171.39,-141.75 177.64,-134.51 183.04,-127.64"/>
<polygon fill="#042d50" stroke="#042d50" points="186.15,-129.32 189.34,-119.22 180.55,-125.13 186.15,-129.32"/>
</g>
<!-- board.cache_hierarchy.ruby_system.network.routers6&#45;&#45;board.cache_hierarchy.ruby_system.network.routers3 -->
<g id="edge35" class="edge">
<title>board.cache_hierarchy.ruby_system.network.routers6&#45;&#45;board.cache_hierarchy.ruby_system.network.routers3</title>
<path fill="none" stroke="#042d50" d="M152.09,-147.91C154.52,-140.75 156.77,-132.4 158.4,-124.52"/>
<polygon fill="#042d50" stroke="#042d50" points="161.87,-125.03 160.17,-114.57 154.98,-123.8 161.87,-125.03"/>
</g>
<!-- board.cache_hierarchy.ruby_system.network.routers6&#45;&#45;board.cache_hierarchy.ruby_system.network.routers4 -->
<g id="edge36" class="edge">
<title>board.cache_hierarchy.ruby_system.network.routers6&#45;&#45;board.cache_hierarchy.ruby_system.network.routers4</title>
<path fill="none" stroke="#042d50" d="M163.51,-176.38C163.53,-176.35 163.55,-176.32 163.56,-176.29"/>
<polygon fill="#042d50" stroke="#042d50" points="162.28,-186.72 163.61,-176.2 156.02,-183.59 162.28,-186.72"/>
</g>
<!-- board.cache_hierarchy.ruby_system.l1_controllers -->
<g id="node8" class="node">
<title>board.cache_hierarchy.ruby_system.l1_controllers</title>
<path fill="#e5bcd0" stroke="#000000" d="M264.22,-109.21C264.22,-109.21 337.22,-109.21 337.22,-109.21 343.22,-109.21 349.22,-115.21 349.22,-121.21 349.22,-121.21 349.22,-133.21 349.22,-133.21 349.22,-139.21 343.22,-145.21 337.22,-145.21 337.22,-145.21 264.22,-145.21 264.22,-145.21 258.22,-145.21 252.22,-139.21 252.22,-133.21 252.22,-133.21 252.22,-121.21 252.22,-121.21 252.22,-115.21 258.22,-109.21 264.22,-109.21"/>
<text text-anchor="middle" x="300.72" y="-123.51" font-family="Arial" font-size="14.00" fill="#000000">l1_controllers</text>
</g>
<!-- board.cache_hierarchy.ruby_system.l1_controllers&#45;&#45;board.cache_hierarchy.ruby_system.network.routers0 -->
<g id="edge37" class="edge">
<title>board.cache_hierarchy.ruby_system.l1_controllers&#45;&#45;board.cache_hierarchy.ruby_system.network.routers0</title>
<path fill="none" stroke="#381526" d="M245.4,-131.89C245.33,-131.89 245.25,-131.9 245.18,-131.91"/>
<polygon fill="#381526" stroke="#381526" points="242.35,-135.66 252.02,-131.33 241.76,-128.68 242.35,-135.66"/>
<polygon fill="#381526" stroke="#381526" points="254.64,-127.59 244.97,-131.92 255.23,-134.56 254.64,-127.59"/>
</g>
<!-- board.cache_hierarchy.ruby_system.l2_controllers0 -->
<g id="node9" class="node">
<title>board.cache_hierarchy.ruby_system.l2_controllers0</title>
<path fill="#e5bcd0" stroke="#000000" d="M12,-78.44C12,-78.44 92,-78.44 92,-78.44 98,-78.44 104,-84.44 104,-90.44 104,-90.44 104,-102.44 104,-102.44 104,-108.44 98,-114.44 92,-114.44 92,-114.44 12,-114.44 12,-114.44 6,-114.44 0,-108.44 0,-102.44 0,-102.44 0,-90.44 0,-90.44 0,-84.44 6,-78.44 12,-78.44"/>
<text text-anchor="middle" x="52" y="-92.74" font-family="Arial" font-size="14.00" fill="#000000">l2_controllers0</text>
</g>
<!-- board.cache_hierarchy.ruby_system.l2_controllers0&#45;&#45;board.cache_hierarchy.ruby_system.network.routers1 -->
<g id="edge38" class="edge">
<title>board.cache_hierarchy.ruby_system.l2_controllers0&#45;&#45;board.cache_hierarchy.ruby_system.network.routers1</title>
<path fill="none" stroke="#381526" d="M104.18,-114.38C104.21,-114.39 104.24,-114.4 104.27,-114.41"/>
<polygon fill="#381526" stroke="#381526" points="114.61,-114.26 104.01,-114.32 112.33,-120.88 114.61,-114.26"/>
<polygon fill="#381526" stroke="#381526" points="93.75,-114.49 104.35,-114.44 96.03,-107.87 93.75,-114.49"/>
</g>
<!-- board.cache_hierarchy.ruby_system.l2_controllers1 -->
<g id="node10" class="node">
<title>board.cache_hierarchy.ruby_system.l2_controllers1</title>
<path fill="#e5bcd0" stroke="#000000" d="M201.87,-12.91C201.87,-12.91 281.87,-12.91 281.87,-12.91 287.87,-12.91 293.87,-18.91 293.87,-24.91 293.87,-24.91 293.87,-36.91 293.87,-36.91 293.87,-42.91 287.87,-48.91 281.87,-48.91 281.87,-48.91 201.87,-48.91 201.87,-48.91 195.87,-48.91 189.87,-42.91 189.87,-36.91 189.87,-36.91 189.87,-24.91 189.87,-24.91 189.87,-18.91 195.87,-12.91 201.87,-12.91"/>
<text text-anchor="middle" x="241.87" y="-27.21" font-family="Arial" font-size="14.00" fill="#000000">l2_controllers1</text>
</g>
<!-- board.cache_hierarchy.ruby_system.l2_controllers1&#45;&#45;board.cache_hierarchy.ruby_system.network.routers2 -->
<g id="edge39" class="edge">
<title>board.cache_hierarchy.ruby_system.l2_controllers1&#45;&#45;board.cache_hierarchy.ruby_system.network.routers2</title>
<path fill="none" stroke="#381526" d="M225.03,-57.5C221.59,-62.94 217.97,-68.66 214.52,-74.11"/>
<polygon fill="#381526" stroke="#381526" points="228.02,-59.33 230.41,-49.01 222.1,-55.59 228.02,-59.33"/>
<polygon fill="#381526" stroke="#381526" points="211.33,-72.61 208.94,-82.93 217.25,-76.35 211.33,-72.61"/>
</g>
<!-- board.cache_hierarchy.ruby_system.directory_controllers0 -->
<g id="node11" class="node">
<title>board.cache_hierarchy.ruby_system.directory_controllers0</title>
<path fill="#e5bcd0" stroke="#000000" d="M68.3,-0.5C68.3,-0.5 190.3,-0.5 190.3,-0.5 196.3,-0.5 202.3,-6.5 202.3,-12.5 202.3,-12.5 202.3,-24.5 202.3,-24.5 202.3,-30.5 196.3,-36.5 190.3,-36.5 190.3,-36.5 68.3,-36.5 68.3,-36.5 62.3,-36.5 56.3,-30.5 56.3,-24.5 56.3,-24.5 56.3,-12.5 56.3,-12.5 56.3,-6.5 62.3,-0.5 68.3,-0.5"/>
<text text-anchor="middle" x="129.3" y="-14.8" font-family="Arial" font-size="14.00" fill="#000000">directory_controllers0</text>
</g>
<!-- board.cache_hierarchy.ruby_system.directory_controllers0&#45;&#45;board.cache_hierarchy.ruby_system.network.routers3 -->
<g id="edge40" class="edge">
<title>board.cache_hierarchy.ruby_system.directory_controllers0&#45;&#45;board.cache_hierarchy.ruby_system.network.routers3</title>
<path fill="none" stroke="#381526" d="M139.77,-46.22C142.53,-53.5 145.49,-61.35 148.25,-68.63"/>
<polygon fill="#381526" stroke="#381526" points="142.93,-44.66 136.12,-36.55 136.38,-47.14 142.93,-44.66"/>
<polygon fill="#381526" stroke="#381526" points="145.01,-69.98 151.82,-78.09 151.56,-67.5 145.01,-69.98"/>
</g>
<!-- board.cache_hierarchy.ruby_system.directory_controllers1 -->
<g id="node12" class="node">
<title>board.cache_hierarchy.ruby_system.directory_controllers1</title>
<path fill="#e5bcd0" stroke="#000000" d="M16.27,-198.05C16.27,-198.05 138.27,-198.05 138.27,-198.05 144.27,-198.05 150.27,-204.05 150.27,-210.05 150.27,-210.05 150.27,-222.05 150.27,-222.05 150.27,-228.05 144.27,-234.05 138.27,-234.05 138.27,-234.05 16.27,-234.05 16.27,-234.05 10.27,-234.05 4.27,-228.05 4.27,-222.05 4.27,-222.05 4.27,-210.05 4.27,-210.05 4.27,-204.05 10.27,-198.05 16.27,-198.05"/>
<text text-anchor="middle" x="77.27" y="-212.35" font-family="Arial" font-size="14.00" fill="#000000">directory_controllers1</text>
</g>
<!-- board.cache_hierarchy.ruby_system.directory_controllers1&#45;&#45;board.cache_hierarchy.ruby_system.network.routers4 -->
<g id="edge41" class="edge">
<title>board.cache_hierarchy.ruby_system.directory_controllers1&#45;&#45;board.cache_hierarchy.ruby_system.network.routers4</title>
<path fill="none" stroke="#381526" d="M125.26,-193.82C125.99,-193.48 126.72,-193.14 127.44,-192.81"/>
<polygon fill="#381526" stroke="#381526" points="123.79,-190.64 116.18,-198.02 126.73,-196.99 123.79,-190.64"/>
<polygon fill="#381526" stroke="#381526" points="129.01,-195.94 136.61,-188.56 126.07,-189.59 129.01,-195.94"/>
</g>
<!-- board.cache_hierarchy.ruby_system.dma_controllers0 -->
<g id="node13" class="node">
<title>board.cache_hierarchy.ruby_system.dma_controllers0</title>
<path fill="#e5bcd0" stroke="#000000" d="M212.01,-215.56C212.01,-215.56 309.01,-215.56 309.01,-215.56 315.01,-215.56 321.01,-221.56 321.01,-227.56 321.01,-227.56 321.01,-239.56 321.01,-239.56 321.01,-245.56 315.01,-251.56 309.01,-251.56 309.01,-251.56 212.01,-251.56 212.01,-251.56 206.01,-251.56 200.01,-245.56 200.01,-239.56 200.01,-239.56 200.01,-227.56 200.01,-227.56 200.01,-221.56 206.01,-215.56 212.01,-215.56"/>
<text text-anchor="middle" x="260.51" y="-229.86" font-family="Arial" font-size="14.00" fill="#000000">dma_controllers0</text>
</g>
<!-- board.cache_hierarchy.ruby_system.dma_controllers0&#45;&#45;board.cache_hierarchy.ruby_system.network.routers5 -->
<g id="edge42" class="edge">
<title>board.cache_hierarchy.ruby_system.dma_controllers0&#45;&#45;board.cache_hierarchy.ruby_system.network.routers5</title>
<path fill="none" stroke="#381526" d="M237.43,-207.7C234.57,-204.5 231.65,-201.23 228.79,-198.03"/>
<polygon fill="#381526" stroke="#381526" points="235.08,-210.32 244.35,-215.45 240.3,-205.66 235.08,-210.32"/>
<polygon fill="#381526" stroke="#381526" points="231.16,-195.42 221.89,-190.29 225.94,-200.08 231.16,-195.42"/>
</g>
<!-- board.cache_hierarchy.ruby_system.dma_controllers1 -->
<g id="node14" class="node">
<title>board.cache_hierarchy.ruby_system.dma_controllers1</title>
<path fill="#e5bcd0" stroke="#000000" d="M88.45,-240.2C88.45,-240.2 185.45,-240.2 185.45,-240.2 191.45,-240.2 197.45,-246.2 197.45,-252.2 197.45,-252.2 197.45,-264.2 197.45,-264.2 197.45,-270.2 191.45,-276.2 185.45,-276.2 185.45,-276.2 88.45,-276.2 88.45,-276.2 82.45,-276.2 76.45,-270.2 76.45,-264.2 76.45,-264.2 76.45,-252.2 76.45,-252.2 76.45,-246.2 82.45,-240.2 88.45,-240.2"/>
<text text-anchor="middle" x="136.95" y="-254.5" font-family="Arial" font-size="14.00" fill="#000000">dma_controllers1</text>
</g>
<!-- board.cache_hierarchy.ruby_system.dma_controllers1&#45;&#45;board.cache_hierarchy.ruby_system.network.routers6 -->
<g id="edge43" class="edge">
<title>board.cache_hierarchy.ruby_system.dma_controllers1&#45;&#45;board.cache_hierarchy.ruby_system.network.routers6</title>
<path fill="none" stroke="#381526" d="M138.24,-229.87C138.75,-218.64 139.34,-205.75 139.85,-194.53"/>
<polygon fill="#381526" stroke="#381526" points="134.74,-229.89 137.78,-240.04 141.73,-230.21 134.74,-229.89"/>
<polygon fill="#381526" stroke="#381526" points="143.35,-194.54 140.31,-184.39 136.36,-194.22 143.35,-194.54"/>
</g>
</g>
</svg>
